<?xml version="1.0" encoding="utf-8"?>
<!-- Generator: Adobe Illustrator 26.0.3, SVG Export Plug-In . SVG Version: 6.00 Build 0)  -->
<svg version="1.1" xmlns="http://www.w3.org/2000/svg" xmlns:xlink="http://www.w3.org/1999/xlink" x="0px" y="0px"
	 viewBox="0 0 650 500" style="enable-background:new 0 0 650 500;" xml:space="preserve">
<style type="text/css">
	.st0{fill:#FFF1E1;}
	.st1{fill:none;stroke:#B2A4A1;stroke-width:4;stroke-miterlimit:10;}
	.st2{fill:#FBB03B;stroke:#FFFFFF;stroke-width:4;enable-background:new    ;}
	.st3{fill:url(#SVGID_1_);stroke:#FFF1E1;stroke-width:5;stroke-miterlimit:10;enable-background:new    ;}
	
		.st4{fill:url(#SVGID_00000175280364097797244840000001896456117657323195_);stroke:#FFF1E1;stroke-width:5;stroke-miterlimit:10;enable-background:new    ;}
	
		.st5{fill:url(#SVGID_00000089571963015104459680000000329831771782757053_);stroke:#FFF1E1;stroke-width:5;stroke-miterlimit:10;enable-background:new    ;}
	
		.st6{fill:url(#SVGID_00000070110789898123105360000016116789936076697992_);stroke:#FFF1E1;stroke-width:5;stroke-miterlimit:10;enable-background:new    ;}
	
		.st7{fill:url(#SVGID_00000131361664841347438690000000574896903880601522_);stroke:#FFF1E1;stroke-width:5;stroke-miterlimit:10;enable-background:new    ;}
	
		.st8{fill:url(#SVGID_00000114044760363762192260000008489290847264354211_);stroke:#FFF1E1;stroke-width:5;stroke-miterlimit:10;enable-background:new    ;}
	
		.st9{fill:url(#SVGID_00000178926355086370500050000016004569992227566233_);stroke:#FFF1E1;stroke-width:5;stroke-miterlimit:10;enable-background:new    ;}
	
		.st10{fill:url(#SVGID_00000183932962939003397940000009119255092389401510_);stroke:#FFF1E1;stroke-width:5;stroke-miterlimit:10;enable-background:new    ;}
	
		.st11{fill:url(#SVGID_00000018938250363743050110000013499891599931663249_);stroke:#FFF1E1;stroke-width:5;stroke-miterlimit:10;enable-background:new    ;}
	
		.st12{fill:url(#SVGID_00000179643219676252687600000017105394471037096629_);stroke:#FFF1E1;stroke-width:5;stroke-miterlimit:10;enable-background:new    ;}
	
		.st13{fill:url(#SVGID_00000049223514799686457400000005552946234629304989_);stroke:#FFF1E1;stroke-width:5;stroke-miterlimit:10;enable-background:new    ;}
	
		.st14{fill:url(#SVGID_00000165955765273597468340000015347466015081212308_);stroke:#FFF1E1;stroke-width:5;stroke-miterlimit:10;enable-background:new    ;}
	
		.st15{fill:url(#SVGID_00000019647700065561053020000016827715981468480913_);stroke:#FFF1E1;stroke-width:5;stroke-miterlimit:10;enable-background:new    ;}
	
		.st16{fill:url(#SVGID_00000114050983559787192260000001546378212497767075_);stroke:#FFF1E1;stroke-width:5;stroke-miterlimit:10;enable-background:new    ;}
	
		.st17{fill:url(#SVGID_00000043452235488185100170000004352187369622519483_);stroke:#FFF1E1;stroke-width:5;stroke-miterlimit:10;enable-background:new    ;}
	
		.st18{fill:url(#SVGID_00000067215389107370184080000011770062455870808749_);stroke:#FFF1E1;stroke-width:5;stroke-miterlimit:10;enable-background:new    ;}
	
		.st19{fill:url(#SVGID_00000075159698092809762680000015579625441559234182_);stroke:#FFF1E1;stroke-width:5;stroke-miterlimit:10;enable-background:new    ;}
	
		.st20{fill:url(#SVGID_00000140734842269650919550000011755471783400649401_);stroke:#FFF1E1;stroke-width:5;stroke-miterlimit:10;enable-background:new    ;}
	
		.st21{fill:url(#SVGID_00000032650396830693218670000001733756979294446731_);stroke:#FFF1E1;stroke-width:5;stroke-miterlimit:10;enable-background:new    ;}
	.st22{fill:#F4CD9D;stroke:#FFF1E1;stroke-width:4;enable-background:new    ;}
	.st23{fill:url(#SVGID_00000034056909647031529070000015606925584438118809_);}
	.st24{fill:none;stroke:#FFF1E1;stroke-width:5;stroke-miterlimit:10;enable-background:new    ;}
	.st25{fill:none;stroke:#808080;stroke-width:0.75;stroke-linecap:square;}
	.st26{fill:#4D4D4D;}
	.st27{font-family:'AvenirNext-Bold';}
	.st28{font-size:18px;}
	.st29{fill:#231F20;}
	.st30{font-family:'AvenirNext-Medium';}
	.st31{font-size:15px;}
	.st32{fill:none;stroke:url(#SVGID_00000136378046738597474870000016472266139014237312_);stroke-width:14;stroke-miterlimit:10;}
	.st33{fill:url(#SVGID_00000126304679964989134940000016135413344175626431_);}
	.st34{fill:url(#SVGID_00000119814428417521371290000016731498154694660021_);}
	.st35{fill:none;}
	.st36{font-family:'AvenirNext-DemiBold';}
	.st37{font-size:14px;}
	.st38{fill:none;stroke:#741199;stroke-miterlimit:10;}
	.st39{font-size:25px;}
	.st40{font-family:'AvenirNext-Regular';}
	.st41{font-size:12px;}
	.st42{fill:none;stroke:#808080;stroke-linecap:square;}
	.st43{opacity:0.5;fill:#F8F9E4;}
	.st44{fill:none;stroke:#FF0000;stroke-width:5;stroke-miterlimit:10;}
	.st45{fill:none;stroke:#FF0000;stroke-width:5;stroke-miterlimit:10;stroke-dasharray:11.7809,3.927;}
	.st46{fill:#EF7550;}
	.st47{fill:#EFBC6C;}
	.st48{fill:#FF0000;}
</style>
<g id="Layer_4">
	<rect class="st0" width="650" height="500"/>
	<rect x="33" y="-66" class="st1" width="58" height="27"/>
</g>
<g id="Layer_3">
	<path class="st2" d="M117.05,416.62h16.65v-3.91h-16.65V416.62z"/>
	<g>
		<linearGradient id="SVGID_1_" gradientUnits="userSpaceOnUse" x1="-419.2566" y1="433.7485" x2="-402.6024" y2="433.7485">
			<stop  offset="0" style="stop-color:#FFB22A"/>
			<stop  offset="0.1549" style="stop-color:#FCA925"/>
			<stop  offset="0.4123" style="stop-color:#F58F16"/>
			<stop  offset="0.7245" style="stop-color:#E96800"/>
			<stop  offset="0.9944" style="stop-color:#E155FF"/>
		</linearGradient>
		<path class="st3" d="M-419.26,436.62h16.65v-5.74h-16.65V436.62z"/>
		
			<linearGradient id="SVGID_00000046316140444092179670000008611312529245758378_" gradientUnits="userSpaceOnUse" x1="-402.646" y1="432.7026" x2="-385.9918" y2="432.7026">
			<stop  offset="0" style="stop-color:#FFB22A"/>
			<stop  offset="0.1549" style="stop-color:#FCA925"/>
			<stop  offset="0.4123" style="stop-color:#F58F16"/>
			<stop  offset="0.7245" style="stop-color:#E96800"/>
			<stop  offset="0.9944" style="stop-color:#E155FF"/>
		</linearGradient>
		
			<path style="fill:url(#SVGID_00000046316140444092179670000008611312529245758378_);stroke:#FFF1E1;stroke-width:5;stroke-miterlimit:10;enable-background:new    ;" d="
			M-402.65,436.62h16.65v-7.83h-16.65V436.62z"/>
		
			<linearGradient id="SVGID_00000174586630864747252010000009619395647312743837_" gradientUnits="userSpaceOnUse" x1="-385.9918" y1="428.7889" x2="-369.3375" y2="428.7889">
			<stop  offset="0" style="stop-color:#FFB22A"/>
			<stop  offset="0.1549" style="stop-color:#FCA925"/>
			<stop  offset="0.4123" style="stop-color:#F58F16"/>
			<stop  offset="0.7245" style="stop-color:#E96800"/>
			<stop  offset="0.9944" style="stop-color:#E155FF"/>
		</linearGradient>
		
			<path style="fill:url(#SVGID_00000174586630864747252010000009619395647312743837_);stroke:#FFF1E1;stroke-width:5;stroke-miterlimit:10;enable-background:new    ;" d="
			M-385.99,436.62h16.65v-15.65h-16.65V436.62z"/>
		
			<linearGradient id="SVGID_00000152949013778489088890000012906779911251070134_" gradientUnits="userSpaceOnUse" x1="-369.3375" y1="421.6137" x2="-352.6833" y2="421.6137">
			<stop  offset="0" style="stop-color:#FFB22A"/>
			<stop  offset="0.1549" style="stop-color:#FCA925"/>
			<stop  offset="0.4123" style="stop-color:#F58F16"/>
			<stop  offset="0.7245" style="stop-color:#E96800"/>
			<stop  offset="0.9944" style="stop-color:#E155FF"/>
		</linearGradient>
		
			<path style="fill:url(#SVGID_00000152949013778489088890000012906779911251070134_);stroke:#FFF1E1;stroke-width:5;stroke-miterlimit:10;enable-background:new    ;" d="
			M-369.34,436.62h16.65v-30.01h-16.65V436.62z"/>
		
			<linearGradient id="SVGID_00000092414598711895021740000010756330652027033521_" gradientUnits="userSpaceOnUse" x1="-352.6833" y1="418.6784" x2="-336.029" y2="418.6784">
			<stop  offset="0" style="stop-color:#FFB22A"/>
			<stop  offset="0.1549" style="stop-color:#FCA925"/>
			<stop  offset="0.4123" style="stop-color:#F58F16"/>
			<stop  offset="0.7245" style="stop-color:#E96800"/>
			<stop  offset="0.9944" style="stop-color:#E155FF"/>
		</linearGradient>
		
			<path style="fill:url(#SVGID_00000092414598711895021740000010756330652027033521_);stroke:#FFF1E1;stroke-width:5;stroke-miterlimit:10;enable-background:new    ;" d="
			M-352.68,436.62h16.65v-35.88h-16.65V436.62z"/>
		
			<linearGradient id="SVGID_00000103970643848955585190000005159251791506240645_" gradientUnits="userSpaceOnUse" x1="-336.029" y1="395.5222" x2="-319.3748" y2="395.5222">
			<stop  offset="0" style="stop-color:#FFB22A"/>
			<stop  offset="0.1549" style="stop-color:#FCA925"/>
			<stop  offset="0.4123" style="stop-color:#F58F16"/>
			<stop  offset="0.7245" style="stop-color:#E96800"/>
			<stop  offset="0.9944" style="stop-color:#E155FF"/>
		</linearGradient>
		
			<path style="fill:url(#SVGID_00000103970643848955585190000005159251791506240645_);stroke:#FFF1E1;stroke-width:5;stroke-miterlimit:10;enable-background:new    ;" d="
			M-336.03,436.62h16.65v-82.19h-16.65V436.62z"/>
		
			<linearGradient id="SVGID_00000163050889941708758590000008132270872634996639_" gradientUnits="userSpaceOnUse" x1="-319.3748" y1="382.1504" x2="-302.7206" y2="382.1504">
			<stop  offset="0" style="stop-color:#FFB22A"/>
			<stop  offset="0.1549" style="stop-color:#FCA925"/>
			<stop  offset="0.4123" style="stop-color:#F58F16"/>
			<stop  offset="0.7245" style="stop-color:#E96800"/>
			<stop  offset="0.9944" style="stop-color:#E155FF"/>
		</linearGradient>
		
			<path style="fill:url(#SVGID_00000163050889941708758590000008132270872634996639_);stroke:#FFF1E1;stroke-width:5;stroke-miterlimit:10;enable-background:new    ;" d="
			M-319.37,436.62h16.65V327.68h-16.65V436.62z"/>
		
			<linearGradient id="SVGID_00000132790268094548830400000014922844026137382549_" gradientUnits="userSpaceOnUse" x1="-302.7206" y1="359.3203" x2="-286.0663" y2="359.3203">
			<stop  offset="0" style="stop-color:#FFB22A"/>
			<stop  offset="0.1549" style="stop-color:#FCA925"/>
			<stop  offset="0.4123" style="stop-color:#F58F16"/>
			<stop  offset="0.7245" style="stop-color:#E96800"/>
			<stop  offset="0.9944" style="stop-color:#E155FF"/>
		</linearGradient>
		
			<path style="fill:url(#SVGID_00000132790268094548830400000014922844026137382549_);stroke:#FFF1E1;stroke-width:5;stroke-miterlimit:10;enable-background:new    ;" d="
			M-302.72,436.62h16.65V282.02h-16.65V436.62z"/>
		
			<linearGradient id="SVGID_00000167389546982389126450000016742165266729149849_" gradientUnits="userSpaceOnUse" x1="-286.0663" y1="328.3366" x2="-269.412" y2="328.3366">
			<stop  offset="0" style="stop-color:#FFB22A"/>
			<stop  offset="0.1549" style="stop-color:#FCA925"/>
			<stop  offset="0.4123" style="stop-color:#F58F16"/>
			<stop  offset="0.7245" style="stop-color:#E96800"/>
			<stop  offset="0.9944" style="stop-color:#E155FF"/>
		</linearGradient>
		
			<path style="fill:url(#SVGID_00000167389546982389126450000016742165266729149849_);stroke:#FFF1E1;stroke-width:5;stroke-miterlimit:10;enable-background:new    ;" d="
			M-286.07,436.62h16.65V220.06h-16.65V436.62z"/>
		
			<linearGradient id="SVGID_00000053519130881887009950000005541601140969156996_" gradientUnits="userSpaceOnUse" x1="-269.412" y1="314.3125" x2="-252.7578" y2="314.3125">
			<stop  offset="0" style="stop-color:#FFB22A"/>
			<stop  offset="0.1549" style="stop-color:#FCA925"/>
			<stop  offset="0.4123" style="stop-color:#F58F16"/>
			<stop  offset="0.7245" style="stop-color:#E96800"/>
			<stop  offset="0.9944" style="stop-color:#E155FF"/>
		</linearGradient>
		
			<path style="fill:url(#SVGID_00000053519130881887009950000005541601140969156996_);stroke:#FFF1E1;stroke-width:5;stroke-miterlimit:10;enable-background:new    ;" d="
			M-269.41,436.62h16.65V192.01h-16.65V436.62z"/>
		
			<linearGradient id="SVGID_00000005247720608077227240000017068079185337967780_" gradientUnits="userSpaceOnUse" x1="-252.7578" y1="297.0269" x2="-236.1036" y2="297.0269">
			<stop  offset="0" style="stop-color:#FFB22A"/>
			<stop  offset="0.1549" style="stop-color:#FCA925"/>
			<stop  offset="0.4123" style="stop-color:#F58F16"/>
			<stop  offset="0.7245" style="stop-color:#E96800"/>
			<stop  offset="0.9944" style="stop-color:#E155FF"/>
		</linearGradient>
		
			<path style="fill:url(#SVGID_00000005247720608077227240000017068079185337967780_);stroke:#FFF1E1;stroke-width:5;stroke-miterlimit:10;enable-background:new    ;" d="
			M-252.76,436.62h16.65V157.44h-16.65V436.62z"/>
		
			<linearGradient id="SVGID_00000062189607233383826910000000900706732148922516_" gradientUnits="userSpaceOnUse" x1="-236.1036" y1="285.6118" x2="-219.4493" y2="285.6118">
			<stop  offset="0" style="stop-color:#FFB22A"/>
			<stop  offset="0.1549" style="stop-color:#FCA925"/>
			<stop  offset="0.4123" style="stop-color:#F58F16"/>
			<stop  offset="0.7245" style="stop-color:#E96800"/>
			<stop  offset="0.9944" style="stop-color:#E155FF"/>
		</linearGradient>
		
			<path style="fill:url(#SVGID_00000062189607233383826910000000900706732148922516_);stroke:#FFF1E1;stroke-width:5;stroke-miterlimit:10;enable-background:new    ;" d="
			M-236.1,436.62h16.65V134.61h-16.65V436.62z"/>
		
			<linearGradient id="SVGID_00000143610741555973368920000011218010749449615259_" gradientUnits="userSpaceOnUse" x1="-219.4493" y1="280.3082" x2="-202.7951" y2="280.3082">
			<stop  offset="0" style="stop-color:#FFB22A"/>
			<stop  offset="0.1549" style="stop-color:#FCA925"/>
			<stop  offset="0.4123" style="stop-color:#F58F16"/>
			<stop  offset="0.7245" style="stop-color:#E96800"/>
			<stop  offset="0.9944" style="stop-color:#E155FF"/>
		</linearGradient>
		
			<path style="fill:url(#SVGID_00000143610741555973368920000011218010749449615259_);stroke:#FFF1E1;stroke-width:5;stroke-miterlimit:10;enable-background:new    ;" d="
			M-219.45,436.62h16.65V124h-16.65V436.62z"/>
		
			<linearGradient id="SVGID_00000028294887166595493110000006288044326883173025_" gradientUnits="userSpaceOnUse" x1="-202.7951" y1="286.8099" x2="-186.1408" y2="286.8099">
			<stop  offset="0" style="stop-color:#FFB22A"/>
			<stop  offset="0.1549" style="stop-color:#FCA925"/>
			<stop  offset="0.4123" style="stop-color:#F58F16"/>
			<stop  offset="0.7245" style="stop-color:#E96800"/>
			<stop  offset="0.9944" style="stop-color:#E155FF"/>
		</linearGradient>
		
			<path style="fill:url(#SVGID_00000028294887166595493110000006288044326883173025_);stroke:#FFF1E1;stroke-width:5;stroke-miterlimit:10;enable-background:new    ;" d="
			M-202.8,436.62h16.65V137h-16.65V436.62z"/>
		
			<linearGradient id="SVGID_00000134240454137231436490000003111273556924190108_" gradientUnits="userSpaceOnUse" x1="-186.1408" y1="296.3746" x2="-169.4866" y2="296.3746">
			<stop  offset="0" style="stop-color:#FFB22A"/>
			<stop  offset="0.1549" style="stop-color:#FCA925"/>
			<stop  offset="0.4123" style="stop-color:#F58F16"/>
			<stop  offset="0.7245" style="stop-color:#E96800"/>
			<stop  offset="0.9944" style="stop-color:#E155FF"/>
		</linearGradient>
		
			<path style="fill:url(#SVGID_00000134240454137231436490000003111273556924190108_);stroke:#FFF1E1;stroke-width:5;stroke-miterlimit:10;enable-background:new    ;" d="
			M-186.14,436.62h16.65V156.13h-16.65V436.62z"/>
		
			<linearGradient id="SVGID_00000159454261658616964700000001334321449597833885_" gradientUnits="userSpaceOnUse" x1="-169.4866" y1="311.7033" x2="-152.8323" y2="311.7033">
			<stop  offset="0" style="stop-color:#FFB22A"/>
			<stop  offset="0.1549" style="stop-color:#FCA925"/>
			<stop  offset="0.4123" style="stop-color:#F58F16"/>
			<stop  offset="0.7245" style="stop-color:#E96800"/>
			<stop  offset="0.9944" style="stop-color:#E155FF"/>
		</linearGradient>
		
			<path style="fill:url(#SVGID_00000159454261658616964700000001334321449597833885_);stroke:#FFF1E1;stroke-width:5;stroke-miterlimit:10;enable-background:new    ;" d="
			M-169.49,436.62h16.65V186.79h-16.65V436.62z"/>
		
			<linearGradient id="SVGID_00000085222261250375328100000014783041268587467673_" gradientUnits="userSpaceOnUse" x1="-152.8323" y1="329.3151" x2="-136.1781" y2="329.3151">
			<stop  offset="0" style="stop-color:#FFB22A"/>
			<stop  offset="0.1549" style="stop-color:#FCA925"/>
			<stop  offset="0.4123" style="stop-color:#F58F16"/>
			<stop  offset="0.7245" style="stop-color:#E96800"/>
			<stop  offset="0.9944" style="stop-color:#E155FF"/>
		</linearGradient>
		
			<path style="fill:url(#SVGID_00000085222261250375328100000014783041268587467673_);stroke:#FFF1E1;stroke-width:5;stroke-miterlimit:10;enable-background:new    ;" d="
			M-152.83,436.62h16.65v-214.6h-16.65V436.62z"/>
		
			<linearGradient id="SVGID_00000154391299567327135120000004054563837288993207_" gradientUnits="userSpaceOnUse" x1="-136.1781" y1="360.2987" x2="-119.5238" y2="360.2987">
			<stop  offset="0" style="stop-color:#FFB22A"/>
			<stop  offset="0.1549" style="stop-color:#FCA925"/>
			<stop  offset="0.4123" style="stop-color:#F58F16"/>
			<stop  offset="0.7245" style="stop-color:#E96800"/>
			<stop  offset="0.9944" style="stop-color:#E155FF"/>
		</linearGradient>
		
			<path style="fill:url(#SVGID_00000154391299567327135120000004054563837288993207_);stroke:#FFF1E1;stroke-width:5;stroke-miterlimit:10;enable-background:new    ;" d="
			M-136.18,436.62h16.65V283.98h-16.65V436.62z"/>
		
			<linearGradient id="SVGID_00000063620618838043964560000008399149401733247118_" gradientUnits="userSpaceOnUse" x1="-119.5238" y1="376.6059" x2="-102.8696" y2="376.6059">
			<stop  offset="0" style="stop-color:#FFB22A"/>
			<stop  offset="0.1549" style="stop-color:#FCA925"/>
			<stop  offset="0.4123" style="stop-color:#F58F16"/>
			<stop  offset="0.7245" style="stop-color:#E96800"/>
			<stop  offset="0.9944" style="stop-color:#E155FF"/>
		</linearGradient>
		
			<path style="fill:url(#SVGID_00000063620618838043964560000008399149401733247118_);stroke:#FFF1E1;stroke-width:5;stroke-miterlimit:10;enable-background:new    ;" d="
			M-119.52,436.62h16.65V316.6h-16.65V436.62z"/>
	</g>
	<g>
		<path class="st22" d="M450.13,416.62h16.65v-85.45h-16.65V416.62z"/>
		<path class="st22" d="M466.78,416.62h16.65v-48.92h-16.65V416.62z"/>
		<path class="st22" d="M483.44,416.62h16.65v-36.53h-16.65V416.62z"/>
		<path class="st22" d="M500.09,416.62h16.65v-23.48h-16.65V416.62z"/>
		<path class="st22" d="M516.75,416.62h16.65v-12.39h-16.65V416.62z"/>
		<path class="st22" d="M533.4,416.62h16.65v-9.13H533.4V416.62z"/>
		<path class="st22" d="M550.06,416.62h16.65v-4.57h-16.65V416.62z"/>
	</g>
	
		<linearGradient id="SVGID_00000099623610553584071760000003274960405386699910_" gradientUnits="userSpaceOnUse" x1="448.9" y1="261.44" x2="132.51" y2="261.44">
		<stop  offset="0" style="stop-color:#FF8C2A"/>
		<stop  offset="0.121" style="stop-color:#FA8421"/>
		<stop  offset="0.3215" style="stop-color:#ED6E07"/>
		<stop  offset="0.3707" style="stop-color:#E96800"/>
		<stop  offset="0.9944" style="stop-color:#E155FF"/>
	</linearGradient>
	<polygon style="fill:url(#SVGID_00000099623610553584071760000003274960405386699910_);" points="432.25,297.73 432.25,265.11 
		415.59,265.11 415.59,203.15 398.94,203.15 398.94,167.92 382.28,167.92 382.28,137.27 365.63,137.27 365.63,118.14 348.98,118.14 
		348.98,105.13 332.32,105.13 332.32,115.74 315.67,115.74 315.67,138.57 299.01,138.57 299.01,173.14 282.36,173.14 282.36,201.19 
		265.7,201.19 265.7,263.16 249.05,263.16 249.05,308.82 232.4,308.82 232.4,335.56 215.74,335.56 215.74,381.87 199.09,381.87 
		199.09,387.74 182.43,387.74 182.43,402.09 165.78,402.09 165.78,409.92 149.12,409.92 149.12,412.01 132.51,412.01 132.51,417.75 
		149.12,417.75 149.17,417.75 165.78,417.75 182.43,417.75 199.09,417.75 215.74,417.75 232.4,417.75 249.05,417.75 265.7,417.75 
		282.36,417.75 299.01,417.75 315.67,417.75 332.32,417.75 348.98,417.75 365.63,417.75 382.28,417.75 398.94,417.75 415.59,417.75 
		432.25,417.75 448.9,417.75 448.9,297.73 	"/>
	<g>
		<path class="st24" d="M132.45,417.4h16.65v-5.74h-16.65V417.4z"/>
		<path class="st24" d="M149.06,417.4h16.65v-7.83h-16.65V417.4z"/>
		<path class="st24" d="M165.71,417.4h16.65v-15.65h-16.65V417.4z"/>
		<path class="st24" d="M182.37,417.4h16.65v-30.01h-16.65V417.4z"/>
		<path class="st24" d="M199.02,417.4h16.65v-35.88h-16.65V417.4z"/>
		<path class="st24" d="M215.68,417.4h16.65v-82.19h-16.65V417.4z"/>
		<path class="st24" d="M232.33,417.4h16.65V308.47h-16.65V417.4z"/>
		<path class="st24" d="M248.98,417.4h16.65V262.81h-16.65V417.4z"/>
		<path class="st24" d="M265.64,417.4h16.65V200.84h-16.65V417.4z"/>
		<path class="st24" d="M282.29,417.4h16.65V172.79h-16.65V417.4z"/>
		<path class="st24" d="M298.95,417.4h16.65V138.22h-16.65V417.4z"/>
		<path class="st24" d="M315.6,417.4h16.65V115.39H315.6V417.4z"/>
		<path class="st24" d="M332.25,417.4h16.65V104.78h-16.65V417.4z"/>
		<path class="st24" d="M348.91,417.4h16.65V117.79h-16.65V417.4z"/>
		<path class="st24" d="M365.56,417.4h16.65V136.92h-16.65V417.4z"/>
		<path class="st24" d="M382.22,417.4h16.65V167.57h-16.65V417.4z"/>
		<path class="st24" d="M398.87,417.4h16.65V202.8h-16.65V417.4z"/>
		<path class="st24" d="M415.53,417.4h16.65V264.76h-16.65V417.4z"/>
		<path class="st24" d="M432.18,417.4h16.65V297.38h-16.65V417.4z"/>
	</g>
</g>
<g id="Layer_1">
	<g id="patch_35_00000010277770427093031320000000678274565969557668_">
		<path class="st25" d="M85.5,421.5h526"/>
	</g>
	<g>
		<text transform="matrix(0.9481 0 0 1 78.1191 477.1758)" class="st26 st27 st28">Lower Attendance</text>
	</g>
	<g>
		<text transform="matrix(0.9481 0 0 1 447.1191 477.1758)" class="st26 st27 st28">Higher Attendance</text>
	</g>
	<g>
		<text transform="matrix(0 -0.9481 1 0 48.5366 284.4414)" class="st29 st30 st31">Occurrence</text>
	</g>
	<g>
		<g>
			
				<linearGradient id="SVGID_00000021808381754293777850000002173552657594049957_" gradientUnits="userSpaceOnUse" x1="614.9813" y1="440" x2="76.1959" y2="440">
				<stop  offset="0" style="stop-color:#FFB22A"/>
				<stop  offset="0.1213" style="stop-color:#FCA925"/>
				<stop  offset="0.3229" style="stop-color:#F58F16"/>
				<stop  offset="0.5674" style="stop-color:#E96800"/>
				<stop  offset="0.9944" style="stop-color:#E155FF"/>
			</linearGradient>
			
				<line style="fill:none;stroke:url(#SVGID_00000021808381754293777850000002173552657594049957_);stroke-width:14;stroke-miterlimit:10;" x1="600.26" y1="440" x2="90.92" y2="440"/>
			<g>
				
					<linearGradient id="SVGID_00000166676458003846081050000014599324845933975682_" gradientUnits="userSpaceOnUse" x1="614.9813" y1="440" x2="76.1959" y2="440">
					<stop  offset="0" style="stop-color:#FFB22A"/>
					<stop  offset="0.1213" style="stop-color:#FCA925"/>
					<stop  offset="0.3229" style="stop-color:#F58F16"/>
					<stop  offset="0.5674" style="stop-color:#E96800"/>
					<stop  offset="0.9944" style="stop-color:#E155FF"/>
				</linearGradient>
				<polygon style="fill:url(#SVGID_00000166676458003846081050000014599324845933975682_);" points="597.98,457.01 597.98,422.99 
					614.98,440 				"/>
			</g>
			<g>
				
					<linearGradient id="SVGID_00000083067266331935883470000007404438852620884652_" gradientUnits="userSpaceOnUse" x1="614.9813" y1="440" x2="76.1959" y2="440">
					<stop  offset="0" style="stop-color:#FFB22A"/>
					<stop  offset="0.1213" style="stop-color:#FCA925"/>
					<stop  offset="0.3229" style="stop-color:#F58F16"/>
					<stop  offset="0.5674" style="stop-color:#E96800"/>
					<stop  offset="0.9944" style="stop-color:#E155FF"/>
				</linearGradient>
				<polygon style="fill:url(#SVGID_00000083067266331935883470000007404438852620884652_);" points="93.2,457.01 93.2,422.99 
					76.2,440 				"/>
			</g>
		</g>
	</g>
	<rect x="29.44" y="388.68" class="st35" width="53.56" height="29.32"/>
	<text transform="matrix(0.9481 0 0 1 29.439 399.2661)"><tspan x="0" y="0" class="st29 st36 st37">Less </tspan><tspan x="0" y="16.8" class="st29 st36 st37">Likely</tspan></text>
	<rect x="30.44" y="86.68" class="st35" width="62.56" height="29.32"/>
	<text transform="matrix(0.9481 0 0 1 30.439 97.2661)"><tspan x="0" y="0" class="st29 st36 st37">More </tspan><tspan x="0" y="16.8" class="st29 st36 st37">Likely</tspan></text>
	<path class="st38" d="M115.01,410.88c64.16-3.03,85.31-35.11,105.35-65.45c21.22-32.13,34.71-69.57,41.19-98.83
		c6.47-29.25,38.51-142.17,80.46-141.74c42.65,0.44,57.75,63.44,77,121.37s24.31,74.63,42.8,104.93
		c18.49,30.3,65.95,79.29,108.1,81.01"/>
	<g>
		<text transform="matrix(0.9481 0 0 1 135.0225 37.9917)" class="st26 st36 st39">Distribution of Possible Attendance</text>
	</g>
	<g>
		<text transform="matrix(0.9481 0 0 1 206.0225 -52.0083)" class="st26 st30" style="font-size:17px;">Forecast Based on Simulation Results</text>
	</g>
	<g>
		<g>
			<rect x="64.51" y="403.44" class="st35" width="31.83" height="36.56"/>
			<text transform="matrix(1.0554 0 0 1 76.7479 412.5156)" class="st29 st40 st41">0</text>
		</g>
		<g>
			<rect x="64.51" y="339.32" class="st35" width="31.83" height="36.56"/>
			<text transform="matrix(1.0554 0 0 1 69.4022 348.395)" class="st29 st40 st41">100</text>
		</g>
		<g>
			<rect x="64.51" y="275.2" class="st35" width="31.83" height="36.56"/>
			<text transform="matrix(1.0554 0 0 1 69.4022 284.2744)" class="st29 st40 st41">200</text>
		</g>
		<g>
			<rect x="64.51" y="211.08" class="st35" width="31.83" height="36.56"/>
			<text transform="matrix(1.0554 0 0 1 69.4022 220.1533)" class="st29 st40 st41">300</text>
		</g>
		<g>
			<rect x="64.51" y="151.54" class="st35" width="31.83" height="36.56"/>
			<text transform="matrix(1.0554 0 0 1 69.4022 160.6128)" class="st29 st40 st41">400</text>
		</g>
		<g>
			<rect x="56.51" y="92" class="st35" width="47.83" height="36.56"/>
			<text transform="matrix(1.0554 0 0 1 69.4022 101.0718)" class="st29 st40 st41">500</text>
		</g>
	</g>
	<line class="st42" x1="96.5" y1="416.5" x2="96.5" y2="89.5"/>
	<rect x="696" y="112" class="st43" width="150.5" height="324.5"/>
</g>
<g id="Layer_2">
	<g>
		<g>
			<line class="st44" x1="447.5" y1="55.5" x2="447.5" y2="61.5"/>
			<line class="st45" x1="447.5" y1="65.43" x2="447.5" y2="409.04"/>
			<line class="st44" x1="447.5" y1="411" x2="447.5" y2="417"/>
		</g>
	</g>
	<rect x="156.53" y="210.7" class="st35" width="117.47" height="50.46"/>
	<text transform="matrix(0.9481 0 0 1 156.5293 229.6035)"><tspan x="0" y="0" class="st46 st36 st39">below </tspan><tspan x="0" y="23" class="st46 st36 st39">capacity</tspan></text>
	<rect x="474.53" y="210.7" class="st35" width="117.47" height="50.46"/>
	<text transform="matrix(0.9481 0 0 1 474.5293 229.6035)"><tspan x="0" y="0" class="st47 st36 st39">above</tspan><tspan x="0" y="23" class="st47 st36 st39">capacity</tspan></text>
	<rect x="457.53" y="61.7" class="st35" width="168.47" height="50.46"/>
	<text transform="matrix(0.9481 0 0 1 457.5293 75.3115)" class="st48 st27 st28">Planned Attendance</text>
	<path class="st0" d="M299.92-188h-21.85c-7.77,0-14.08-6.3-14.08-14.08v-21.85c0-7.77,6.3-14.08,14.08-14.08h21.85
		c7.77,0,14.08,6.3,14.08,14.08v21.85C314-194.3,307.7-188,299.92-188z"/>
</g>
</svg>
