<?xml version="1.0" encoding="utf-8"?>
<!-- Generator: Adobe Illustrator 24.3.0, SVG Export Plug-In . SVG Version: 6.00 Build 0)  -->
<svg version="1.1" id="Layer_1" xmlns="http://www.w3.org/2000/svg" xmlns:xlink="http://www.w3.org/1999/xlink" x="0px" y="0px"
	 viewBox="0 0 50 50" style="enable-background:new 0 0 50 50;" xml:space="preserve">
<style type="text/css">
	.st0{fill:#FFF1E1;}
	.st1{fill:#FFD400;}
	.st2{fill:#FFB242;}
	.st3{fill:#FF6410;}
	.st4{fill:#C400C8;}
	.st5{fill:#FF4289;}
	.st6{fill:url(#SVGID_1_);}
	.st7{fill:none;stroke:#32A4FF;stroke-width:0.5;stroke-linecap:round;stroke-miterlimit:10;}
	.st8{fill:none;stroke:#32A4FF;stroke-width:0.5;stroke-linecap:round;stroke-miterlimit:10;stroke-dasharray:0.62,1.0333;}
	.st9{fill:none;stroke:#32A4FF;stroke-width:0.5;stroke-linecap:round;stroke-miterlimit:10;stroke-dasharray:0.5889,0.9816;}
	.st10{fill:#0C79FF;stroke:#FFFFFF;stroke-width:0.5;stroke-miterlimit:10;}
	.st11{fill:#0CA6FF;stroke:#FFFFFF;stroke-width:0.5;stroke-miterlimit:10;}
	.st12{fill:#25B5FF;stroke:#FFFFFF;stroke-width:0.5;stroke-miterlimit:10;}
	.st13{fill:#60CDFF;stroke:#FFFFFF;stroke-width:0.5;stroke-miterlimit:10;}
</style>
<path class="st0" d="M35.92,50H14.08C6.3,50,0,43.7,0,35.92V14.08C0,6.3,6.3,0,14.08,0h21.85C43.7,0,50,6.3,50,14.08v21.85
	C50,43.7,43.7,50,35.92,50z"/>
<g>
	<path class="st1" d="M11.91,17.23H8.07C7.48,17.23,7,17.71,7,18.3v10.62C7,29.52,7.48,30,8.07,30h3.84c0.59,0,1.07-0.48,1.07-1.07
		V18.3C12.99,17.71,12.51,17.23,11.91,17.23z"/>
</g>
<g>
	<path class="st2" d="M19.49,15h-3.65c-0.65,0-1.17,0.52-1.17,1.17v12.66c0,0.65,0.52,1.17,1.17,1.17h3.65
		c0.65,0,1.17-0.52,1.17-1.17V16.17C20.66,15.52,20.13,15,19.49,15z"/>
</g>
<g>
	<path class="st3" d="M27.05,21h-4.11C22.42,21,22,21.42,22,21.95v7.11c0,0.52,0.42,0.95,0.95,0.95h4.11c0.52,0,0.95-0.42,0.95-0.95
		v-7.11C28,21.42,27.58,21,27.05,21z"/>
</g>
<g>
	<path class="st4" d="M43.05,25h-4.11C38.42,25,38,25.42,38,25.95v3.11c0,0.52,0.42,0.95,0.95,0.95h4.11c0.52,0,0.95-0.42,0.95-0.95
		v-3.11C44,25.42,43.58,25,43.05,25z"/>
</g>
<g>
	<path class="st5" d="M35.12,19.78h-4.22c-0.49,0-0.88,0.39-0.88,0.88v8.46c0,0.49,0.39,0.88,0.88,0.88h4.22
		c0.49,0,0.88-0.39,0.88-0.88v-8.46C36,20.18,35.61,19.78,35.12,19.78z"/>
</g>
<linearGradient id="SVGID_1_" gradientUnits="userSpaceOnUse" x1="5" y1="33.5" x2="45" y2="33.5">
	<stop  offset="0" style="stop-color:#FBB03B"/>
	<stop  offset="0.468" style="stop-color:#ED1C24"/>
	<stop  offset="1" style="stop-color:#A12DBA"/>
</linearGradient>
<rect x="5" y="32" class="st6" width="40" height="3"/>
<g>
	<g>
		<line class="st7" x1="9.75" y1="16.75" x2="10.04" y2="16.68"/>
		<line class="st8" x1="11.04" y1="16.43" x2="16.96" y2="14.95"/>
		<polyline class="st7" points="17.46,14.82 17.75,14.75 17.96,14.96 		"/>
		<line class="st8" x1="18.69" y1="15.69" x2="24.17" y2="21.17"/>
		<polyline class="st7" points="24.54,21.54 24.75,21.75 25.04,21.68 		"/>
		<line class="st8" x1="26.04" y1="21.43" x2="31.96" y2="19.95"/>
		<polyline class="st7" points="32.46,19.82 32.75,19.75 33,19.91 		"/>
		<line class="st9" x1="33.84" y1="20.43" x2="40.08" y2="24.33"/>
		<line class="st7" x1="40.5" y1="24.59" x2="40.75" y2="24.75"/>
	</g>
</g>
<circle class="st10" cx="9.75" cy="16.75" r="1.25"/>
<circle class="st11" cx="17.75" cy="14.75" r="1.25"/>
<circle class="st11" cx="24.75" cy="20.75" r="1.25"/>
<circle class="st12" cx="32.75" cy="19.75" r="1.25"/>
<circle class="st13" cx="40.75" cy="24.75" r="1.25"/>
</svg>
